# File created by Blade
# Date/Time:  Tue Sep 30 19:11:10 2014
#---------------------------------------------------------
:version 1.10
:name HOM
:units
  mass 1.0
  length 1.000000
  angle deg
:documentation
     Acclaim Skeleton File
:root
   axis xyz
   order TX TY TZ RX RY RZ
   position 0.000000 0.000000 0.000000
   orientation 0 0 0
:bonedata
   begin
      id 1
      name Spine_dum
      direction 0.000000 1.000000 0.000000
      length 7.508948
      axis 0.0 0.0 0.0 xyz
   end
   begin
      id 2
      name LeftUpLeg_dum
      direction 1.000000 0.000000 0.000000
      length 3.000560
      axis 0.0 0.0 0.0 xyz
   end
   begin
      id 3
      name RightUpLeg_dum
      direction -1.000000 0.000000 0.000000
      length 3.000560
      axis 0.0 0.0 0.0 xyz
   end
   begin
      id 4
      name Spine
      direction 0.000000 1.000000 0.000000
      length 0.000000
      axis 0.0 0.0 0.0 xyz
      dof rx ry rz
   end
   begin
      id 5
      name Spine_dum1
      direction 0.000000 1.000000 0.000000
      length 13.861154
      axis 0.0 0.0 0.0 xyz
   end
   begin
      id 6
      name Spine_dum2
      direction 0.000000 1.000000 0.000000
      length 8.204781
      axis 0.0 0.0 0.0 xyz
   end
   begin
      id 7
      name Spine_dum3
      direction 0.000000 1.000000 0.000000
      length 8.204781
      axis 0.0 0.0 0.0 xyz
   end
   begin
      id 8
      name Head
      direction 0.000000 1.000000 0.000000
      length 4.527550
      axis 0.0 0.0 0.0 xyz
      dof rx ry rz
   end
   begin
      id 9
      name LeftShoulder
      direction 1.000000 0.000000 0.000000
      length 6.635956
      axis 0.0 0.0 -90.0 xyz
      dof rx ry rz
   end
   begin
      id 10
      name LeftArm
      direction 1.000000 0.000000 0.000000
      length 10.274218
      axis 0.0 0.0 -90.0 xyz
      dof rx ry rz
   end
   begin
      id 11
      name LeftForeArm
      direction 1.000000 0.000000 0.000000
      length 8.522147
      axis 0.0 0.0 -90.0 xyz
      dof ry rz rx
   end
   begin
      id 12
      name LeftHand
      direction 0.000000 0.000000 0.000000
      length 0.000000
      axis 0.0 0.0 -90.0 xyz
      dof rx ry rz
   end
   begin
      id 13
      name LeftHand_dum1
      direction 0.000000 0.000000 0.000000
      length 0.000000
      axis 0.0 0.0 -90.0 xyz
   end
   begin
      id 14
      name LeftHand_dum2
      direction 1.000000 0.000000 0.000000
      length 3.937000
      axis 0.0 0.0 -90.0 xyz
   end
   begin
      id 15
      name LeftHandThumb1
      direction 0.000000 0.000000 1.000000
      length 3.937000
      axis 0.0 0.0 -90.0 xyz
      dof rx rz ry
   end
   begin
      id 16
      name RightShoulder
      direction -1.000000 0.000000 0.000000
      length 6.635956
      axis 0.0 0.0 90.0 xyz
      dof rx ry rz
   end
   begin
      id 17
      name RightArm
      direction -1.000000 0.000000 0.000000
      length 10.274218
      axis 0.0 0.0 90.0 xyz
      dof rx ry rz
   end
   begin
      id 18
      name RightForeArm
      direction -1.000000 0.000000 0.000000
      length 8.522147
      axis 0.0 0.0 90.0 xyz
      dof ry rz rx
   end
   begin
      id 19
      name RightHand
      direction 0.000000 0.000000 0.000000
      length 0.000000
      axis 0.0 0.0 90.0 xyz
      dof rx ry rz
   end
   begin
      id 20
      name RightHand_dum1
      direction 0.000000 0.000000 0.000000
      length 0.000000
      axis 0.0 0.0 90.0 xyz
   end
   begin
      id 21
      name RightHand_dum2
      direction -1.000000 0.000000 0.000000
      length 3.937000
      axis 0.0 0.0 90.0 xyz
   end
   begin
      id 22
      name RightHandThumb1
      direction 0.000000 0.000000 1.000000
      length 3.937000
      axis 0.0 0.0 90.0 xyz
      dof rx rz ry
   end
   begin
      id 23
      name LeftUpLeg
      direction 0.000000 -1.000000 0.000000
      length 16.490845
      axis 0.0 0.0 0.0 xyz
      dof rx ry rz
   end
   begin
      id 24
      name LeftLeg
      direction 0.000000 -1.000000 0.000000
      length 14.556576
      axis 0.0 0.0 0.0 xyz
      dof rx ry rz
   end
   begin
      id 25
      name LeftFoot
      direction 0.000000 -0.258819 0.965926
      length 4.831116
      axis 15.0 0.0 0.0 xyz
      dof rx ry rz
   end
   begin
      id 26
      name LeftToeBase
      direction 0.000000 0.000000 1.000000
      length 2.952750
      axis 0.0 0.0 0.0 xyz
      dof rx ry rz
   end
   begin
      id 27
      name RightUpLeg
      direction 0.000000 -1.000000 0.000000
      length 16.490845
      axis 0.0 0.0 0.0 xyz
      dof rx ry rz
   end
   begin
      id 28
      name RightLeg
      direction 0.000000 -1.000000 0.000000
      length 14.556576
      axis 0.0 0.0 0.0 xyz
      dof rx ry rz
   end
   begin
      id 29
      name RightFoot
      direction 0.000000 -0.258819 0.965926
      length 4.831116
      axis 15.0 0.0 0.0 xyz
      dof rx ry rz
   end
   begin
      id 30
      name RightToeBase
      direction 0.000000 0.000000 1.000000
      length 2.952750
      axis 0.0 0.0 0.0 xyz
      dof rx ry rz
   end
:hierarchy
   begin
      root Spine_dum LeftUpLeg_dum RightUpLeg_dum
      Spine_dum Spine
      LeftUpLeg_dum LeftUpLeg
      RightUpLeg_dum RightUpLeg
      Spine Spine_dum1 Spine_dum2 Spine_dum3
      Spine_dum1 Head
      Spine_dum2 LeftShoulder
      Spine_dum3 RightShoulder
      LeftShoulder LeftArm
      LeftArm LeftForeArm
      LeftForeArm LeftHand
      LeftHand LeftHand_dum1 LeftHand_dum2
      LeftHand_dum1 LeftHandThumb1
      RightShoulder RightArm
      RightArm RightForeArm
      RightForeArm RightHand
      RightHand RightHand_dum1 RightHand_dum2
      RightHand_dum1 RightHandThumb1
      LeftUpLeg LeftLeg
      LeftLeg LeftFoot
      LeftFoot LeftToeBase
      RightUpLeg RightLeg
      RightLeg RightFoot
      RightFoot RightToeBase
   end

# File created by Blade
# Date/Time:  Wed Sep 24 20:26:02 2014
# Frame Rate: 120.000 fps
#------------------------------------------------------
:FULLY-SPECIFIED
:DEGREES
206
root -8.521670 32.583838 -1.290576 20.892307 -80.654689 -8.418383
Spine -13.384117 6.170370 -2.697563
Head -2.159664 -8.545150 10.499146
LeftShoulder -15.443084 22.726144 18.110111
LeftArm 19.165898 -14.720360 -49.868336
LeftForeArm 7.020979 -0.000000 16.619102
LeftHand -28.340316 -0.000000 3.462301
LeftHandThumb1 -26.253704 0.000000 33.147579
RightShoulder -19.649903 11.474237 -31.174754
RightArm -21.128806 8.441638 52.651689
RightForeArm -27.041726 -0.000000 18.513328
RightHand -13.246530 -0.000000 -4.232941
RightHandThumb1 -24.326973 -0.000000 -32.862282
LeftUpLeg -6.981261 1.524879 -2.072106
LeftLeg -3.111323 -0.000000 0.000000
LeftFoot -10.583126 5.825314 -13.428580
LeftToeBase 7.126413 -0.000000 -0.000000
RightUpLeg -7.496943 -10.069334 -5.376475
RightLeg 2.531060 -0.000000 -0.000000
RightFoot -9.629236 -4.660399 1.023901
RightToeBase -0.729976 -0.000000 0.000000
207
root -8.524236 32.581201 -1.265438 20.777322 -80.624193 -8.307754
Spine -13.358969 6.151858 -2.709350
Head -2.162809 -8.545410 10.514379
LeftShoulder -15.371638 22.777393 18.107952
LeftArm 19.224082 -14.128370 -50.461613
LeftForeArm 6.478357 -0.000000 16.615896
LeftHand -28.645943 -0.000000 4.282096
LeftHandThumb1 -26.253704 0.000000 33.147579
RightShoulder -19.664696 11.450870 -31.017050
RightArm -21.182914 8.416470 53.118181
RightForeArm -26.810141 -0.000000 18.444762
RightHand -12.795478 0.000000 -4.198213
RightHandThumb1 -24.326973 -0.000000 -32.862282
LeftUpLeg -6.957339 1.463391 -2.120617
LeftLeg -3.128375 -0.000000 0.000000
LeftFoot -10.574008 5.861911 -13.357111
LeftToeBase 7.059163 -0.000000 -0.000000
RightUpLeg -7.474777 -10.105843 -5.431484
RightLeg 2.545024 -0.000000 -0.000000
RightFoot -9.670180 -4.639356 1.125946
RightToeBase -0.580747 -0.000000 0.000000
208
root -8.529245 32.577997 -1.239418 20.731604 -80.611960 -8.272836
Spine -13.329491 6.143893 -2.707139
Head -2.153994 -8.528722 10.522895
LeftShoulder -15.327060 22.829501 17.998694
LeftArm 19.240661 -13.772697 -50.951539
LeftForeArm 6.878817 -0.000000 16.496474
LeftHand -28.241032 -0.000000 3.182013
LeftHandThumb1 -26.253704 0.000000 33.147579
RightShoulder -19.677058 11.402467 -30.904186
RightArm -21.192568 8.491713 53.659802
RightForeArm -26.780150 -0.000000 18.297889
RightHand -12.868155 -0.000000 -3.895929
RightHandThumb1 -24.326973 -0.000000 -32.862282
LeftUpLeg -6.924224 1.439360 -2.166679
LeftLeg -3.137185 -0.000000 0.000000
LeftFoot -10.598651 5.878039 -13.280862
LeftToeBase 7.082399 -0.000000 -0.000000
RightUpLeg -7.440268 -10.119366 -5.484428
RightLeg 2.541840 -0.000000 -0.000000
RightFoot -9.670602 -4.624299 1.207024
RightToeBase -0.585558 -0.000000 0.000000
209
root -8.533810 32.575002 -1.212113 20.610508 -80.610836 -8.159481
Spine -13.304018 6.142385 -2.721205
Head -2.150909 -8.511400 10.546044
LeftShoulder -15.273172 22.852061 17.900140
LeftArm 19.268272 -13.272490 -51.434822
LeftForeArm 6.969108 -0.000000 16.369206
LeftHand -28.142827 -0.000000 2.722042
LeftHandThumb1 -26.253704 0.000000 33.147579
RightShoulder -19.684493 11.353785 -30.739909
RightArm -21.173274 8.463634 54.195162
RightForeArm -26.628976 -0.000000 18.142041
RightHand -12.820537 -0.000000 -4.012622
RightHandThumb1 -24.326973 -0.000000 -32.862282
LeftUpLeg -6.889564 1.402926 -2.229654
LeftLeg -3.155251 -0.000000 0.000000
LeftFoot -10.607582 5.918158 -13.229353
LeftToeBase 7.058780 -0.000000 -0.000000
RightUpLeg -7.412085 -10.124281 -5.554923
RightLeg 2.536574 -0.000000 -0.000000
RightFoot -9.680280 -4.637653 1.270348
RightToeBase -0.519082 -0.000000 0.000000
210
root -8.536218 32.572305 -1.185503 20.519696 -80.605428 -8.062601
Spine -13.293536 6.115630 -2.720310
Head -2.144238 -8.510692 10.547525
LeftShoulder -15.245582 22.913477 17.810810
LeftArm 19.342293 -12.709302 -51.952374
LeftForeArm 7.022007 -0.000000 16.207193
LeftHand -27.992177 0.000000 2.239167
LeftHandThumb1 -26.253704 0.000000 33.147579
RightShoulder -19.666137 11.318339 -30.642678
RightArm -21.198371 8.437170 54.815097
RightForeArm -26.532713 -0.000000 17.996547
RightHand -12.807831 -0.000000 -3.958322
RightHandThumb1 -24.326973 -0.000000 -32.862282
LeftUpLeg -6.873823 1.369189 -2.285530
LeftLeg -3.172611 -0.000000 0.000000
LeftFoot -10.618414 5.941290 -13.072206
LeftToeBase 7.102061 -0.000000 -0.000000
RightUpLeg -7.398101 -10.105410 -5.621426
RightLeg 2.531502 -0.000000 -0.000000
RightFoot -9.669500 -4.660977 1.277668
RightToeBase -0.564791 -0.000000 0.000000
211
root -8.537189 32.569377 -1.159394 20.429703 -80.580458 -7.960802
Spine -13.269041 6.062435 -2.722001
Head -2.186255 -8.477130 10.581251
LeftShoulder -15.207282 22.928843 17.713711
LeftArm 19.362749 -11.997500 -52.404566
LeftForeArm 6.776300 -0.000000 16.020389
LeftHand -28.001848 -0.000000 2.088928
LeftHandThumb1 -26.253704 0.000000 33.147579
RightShoulder -19.664175 11.304111 -30.514326
RightArm -21.200614 8.367997 55.423178
RightForeArm -26.427644 -0.000000 17.845021
RightHand -12.452955 -0.000000 -3.651199
RightHandThumb1 -24.326973 -0.000000 -32.862282
LeftUpLeg -6.864757 1.252179 -2.322799
LeftLeg -3.194552 -0.000000 0.000000
LeftFoot -10.607766 5.994514 -13.122490
LeftToeBase 6.989031 -0.000000 -0.000000
RightUpLeg -7.391470 -10.136878 -5.675096
RightLeg 2.533988 -0.000000 -0.000000
RightFoot -9.653422 -4.636969 1.339631
RightToeBase -0.606934 -0.000000 0.000000
212
root -8.535841 32.566866 -1.134962 20.390928 -80.565832 -7.903349
Spine -13.250692 6.032570 -2.722638
Head -2.207528 -8.463240 10.580588
LeftShoulder -15.177312 23.083236 17.600094
LeftArm 19.564950 -11.524157 -52.970648
LeftForeArm 6.847838 -0.000000 15.741586
LeftHand -28.059377 -0.000000 1.626921
LeftHandThumb1 -26.253704 0.000000 33.147579
RightShoulder -19.664495 11.320797 -30.362518
RightArm -21.198727 8.204145 56.025204
RightForeArm -26.155085 0.000000 17.639965
RightHand -12.538057 -0.000000 -3.692657
RightHandThumb1 -24.326973 -0.000000 -32.862282
LeftUpLeg -6.866295 1.161499 -2.356448
LeftLeg -3.220122 -0.000000 0.000000
LeftFoot -10.599976 6.048166 -13.110885
LeftToeBase 6.934804 -0.000000 -0.000000
RightUpLeg -7.406687 -10.162477 -5.720681
RightLeg 2.543779 -0.000000 -0.000000
RightFoot -9.635888 -4.628070 1.381935
RightToeBase -0.648350 -0.000000 0.000000
213
root -8.539865 32.564157 -1.106833 20.285829 -80.591755 -7.800500
Spine -13.228294 6.038119 -2.750339
Head -2.215144 -8.500274 10.594685
LeftShoulder -15.116731 23.070365 17.491920
LeftArm 19.537701 -10.686141 -53.352824
LeftForeArm 6.437805 0.000000 15.582976
LeftHand -28.090723 -0.000000 1.485831
LeftHandThumb1 -26.253704 0.000000 33.147579
RightShoulder -19.645290 11.324237 -30.276592
RightArm -21.264949 8.153045 56.689614
RightForeArm -26.183337 -0.000000 17.461904
RightHand -12.030043 0.000000 -3.219144
RightHandThumb1 -24.326973 -0.000000 -32.862282
LeftUpLeg -6.817751 1.104180 -2.414746
LeftLeg -3.274292 -0.000000 0.000000
LeftFoot -10.594933 6.111344 -13.094622
LeftToeBase 6.979881 -0.000000 -0.000000
RightUpLeg -7.389551 -10.149581 -5.797232
RightLeg 2.538226 -0.000000 -0.000000
RightFoot -9.619298 -4.626690 1.429575
RightToeBase -0.688739 -0.000000 0.000000
214
root -8.543838 32.562013 -1.078678 20.255315 -80.624258 -7.769539
Spine -13.210688 6.038900 -2.759148
Head -2.249166 -8.514317 10.636256
LeftShoulder -15.062921 23.082679 17.390161
LeftArm 19.535005 -9.977128 -53.835865
LeftForeArm 6.309079 -0.000000 15.413436
LeftHand -28.253176 -0.000000 1.147181
LeftHandThumb1 -26.253704 0.000000 33.147579
RightShoulder -19.624707 11.301104 -30.146704
RightArm -21.274694 8.113972 57.331984
RightForeArm -26.061165 -0.000000 17.298821
RightHand -11.689552 -0.000000 -2.765071
RightHandThumb1 -24.326973 -0.000000 -32.862282
LeftUpLeg -6.766452 1.034522 -2.460338
LeftLeg -3.344768 -0.000000 0.000000
LeftFoot -10.572972 6.181652 -13.064964
LeftToeBase 6.881798 -0.000000 -0.000000
RightUpLeg -7.380318 -10.109635 -5.866524
RightLeg 2.548669 -0.000000 -0.000000
RightFoot -9.622846 -4.627167 1.463573
RightToeBase -0.624009 -0.000000 0.000000
215
root -8.543072 32.559764 -1.052856 20.281117 -80.643064 -7.766784
Spine -13.202795 6.022957 -2.766343
Head -2.313305 -8.510649 10.679126
LeftShoulder -15.006393 23.068548 17.284838
LeftArm 19.456099 -9.523829 -54.391021
LeftForeArm 6.715171 0.000000 15.322653
LeftHand -27.967151 0.000000 0.323744
LeftHandThumb1 -26.253704 0.000000 33.147579
RightShoulder -19.627509 11.279350 -29.999414
RightArm -21.230690 7.984482 58.002112
RightForeArm -25.915122 -0.000000 17.104207
RightHand -11.694026 0.000000 -2.503376
RightHandThumb1 -24.326973 -0.000000 -32.862282
LeftUpLeg -6.762249 0.976818 -2.498551
LeftLeg -3.394214 -0.000000 0.000000
LeftFoot -10.557236 6.236494 -13.026498
LeftToeBase 6.879815 -0.000000 -0.000000
RightUpLeg -7.414512 -10.076957 -5.917730
RightLeg 2.568674 -0.000000 -0.000000
RightFoot -9.615249 -4.629927 1.553257
RightToeBase -0.610536 -0.000000 0.000000
216
root -8.544514 32.557506 -1.027964 20.322592 -80.652376 -7.800418
Spine -13.177125 6.010524 -2.774716
Head -2.362290 -8.512249 10.725552
LeftShoulder -14.934309 23.087492 17.204402
LeftArm 19.413757 -9.035023 -55.024316
LeftForeArm 6.787660 -0.000000 15.312765
LeftHand -27.986557 -0.000000 0.210233
LeftHandThumb1 -26.253704 0.000000 33.147579
RightShoulder -19.624193 11.245082 -29.783082
RightArm -21.180169 7.987451 58.581790
RightForeArm -25.609793 -0.000000 16.967292
RightHand -11.741840 -0.000000 -2.680858
RightHandThumb1 -24.326973 -0.000000 -32.862282
LeftUpLeg -6.727660 0.920491 -2.529813
LeftLeg -3.465572 -0.000000 0.000000
LeftFoot -10.527126 6.296583 -12.968782
LeftToeBase 6.843376 -0.000000 -0.000000
RightUpLeg -7.419182 -10.086492 -5.958939
RightLeg 2.577812 -0.000000 -0.000000
RightFoot -9.628127 -4.600341 1.674801
RightToeBase -0.582091 -0.000000 0.000000
